<svg width="0" height="0" class="hidden">
  <symbol xmlns="http://www.w3.org/2000/svg" viewBox="0 0 29 27" id="trophy">
    <path clip-rule="evenodd" d="M22.442.375H5.779v1.933H-.015v9.068c0 3.504 3.911 6.388 7.75 6.688 1.26 1.35 3.476 2.33 5.448 2.748v2.37c-1.886.58-5.256 1.941-5.449 3.424H20.68c-.195-1.483-3.907-2.846-5.797-3.424v-2.37c1.98-.418 4.295-1.398 5.557-2.748 3.837-.3 7.575-3.184 7.575-6.688V2.308h-5.572V.375zM1.764 4.025h3.88v7.812a9.21 9.21 0 001.097 4.327c-2.903-.924-4.977-3.305-4.977-6.092V4.026zm15.195 9.527l-2.895-1.595-2.898 1.595.553-3.374-2.344-2.39 3.238-.492 1.451-3.068 1.448 3.068 3.238.493-2.344 2.389.553 3.374zm4.303 2.862a9.912 9.912 0 001.107-4.52V4.075h3.889v5.974c0 2.912-2.084 5.398-4.995 6.364z"></path>
  </symbol>
</svg>
